<svg xmlns="http://www.w3.org/2000/svg" width="59" height="59" viewBox="0 0 59 59"><defs><style>.a{fill:#393939;}.b{fill:#fff;}</style></defs><g transform="translate(-158 -445)"><circle class="a" cx="29.5" cy="29.5" r="29.5" transform="translate(158 445)"/><g transform="translate(171 427.497)"><g transform="translate(0 32.503)"><path class="b" d="M33.833,43.746a10.253,10.253,0,0,0-4.107-8.009A15.463,15.463,0,0,0,20.038,32.5a15.463,15.463,0,0,0-9.688,3.233,11.444,11.444,0,0,0-2.986,3.549,12.1,12.1,0,0,0-3.9,2.067A8.662,8.662,0,0,0,0,48.122a8.538,8.538,0,0,0,2.927,6.3L2.741,61.2a.821.821,0,0,0,1.379.625l4.823-4.463a14.2,14.2,0,0,0,2.668.251,13.032,13.032,0,0,0,8.025-2.627c.134,0,.268.005.4.005a16.744,16.744,0,0,0,3.976-.473l4.221,3.906a.821.821,0,0,0,1.379-.625l-.16-5.829A10.4,10.4,0,0,0,33.833,43.746ZM11.61,55.967a12.479,12.479,0,0,1-2.735-.3.821.821,0,0,0-.738.2l-3.7,3.426.143-5.2a.821.821,0,0,0-.288-.648,7.007,7.007,0,0,1-2.649-5.318c0-2.873,1.973-5.39,4.909-6.757a9.37,9.37,0,0,0-.308,2.381,10.253,10.253,0,0,0,4.107,8.009A14.839,14.839,0,0,0,17,54.717,11.925,11.925,0,0,1,11.61,55.967ZM28.146,50.89a.821.821,0,0,0-.346.692l.118,4.308L24.8,53a.821.821,0,0,0-.775-.189,15.036,15.036,0,0,1-3.986.53c-6.7,0-12.153-4.307-12.153-9.6s5.452-9.6,12.153-9.6,12.153,4.307,12.153,9.6A8.879,8.879,0,0,1,28.146,50.89Z" transform="translate(0 -32.503)"/><path class="b" d="M267.255,165.723a2.669,2.669,0,1,0,2.669,2.669A2.672,2.672,0,0,0,267.255,165.723Zm0,3.7a1.026,1.026,0,1,1,1.026-1.026A1.028,1.028,0,0,1,267.255,169.418Z" transform="translate(-247.102 -156.92)"/><path class="b" d="M372.882,165.723a2.669,2.669,0,1,0,2.669,2.669A2.672,2.672,0,0,0,372.882,165.723Zm0,3.7a1.026,1.026,0,1,1,1.026-1.026A1.028,1.028,0,0,1,372.882,169.418Z" transform="translate(-345.749 -156.92)"/><path class="b" d="M161.629,165.723a2.669,2.669,0,1,0,2.669,2.669A2.672,2.672,0,0,0,161.629,165.723Zm0,3.7a1.026,1.026,0,1,1,1.026-1.026A1.028,1.028,0,0,1,161.629,169.418Z" transform="translate(-148.456 -156.92)"/></g></g></g></svg>