<svg xmlns="http://www.w3.org/2000/svg" width="59" height="59" viewBox="0 0 59 59"><defs><style>.a{fill:#54c11a;}</style></defs><path class="a" d="M29.5,0A29.5,29.5,0,1,0,59,29.5,29.5,29.5,0,0,0,29.5,0Zm.625,46.676h-.007a17.649,17.649,0,0,1-8.438-2.148l-9.36,2.455,2.5-9.147a17.657,17.657,0,1,1,15.3,8.841Zm0,0"/><path class="a" d="M148.752,124.469a14.677,14.677,0,0,0-12.438,22.477l.349.555-1.483,5.414,5.554-1.457.536.318a14.652,14.652,0,0,0,7.469,2.045h.006a14.676,14.676,0,0,0,.006-29.351Zm8.632,20.977c-.368,1.03-2.13,1.97-2.978,2.1a6.055,6.055,0,0,1-2.779-.175,25.475,25.475,0,0,1-2.515-.929c-4.425-1.91-7.316-6.365-7.536-6.659a8.578,8.578,0,0,1-1.8-4.563,4.945,4.945,0,0,1,1.544-3.679,1.622,1.622,0,0,1,1.177-.552c.294,0,.588,0,.845.015s.635-.1.993.757c.368.883,1.25,3.054,1.36,3.274a.813.813,0,0,1,.037.773,12.573,12.573,0,0,1-1.1,1.508c-.2.243-.451.459-.194.9a13.3,13.3,0,0,0,2.454,3.055,12.059,12.059,0,0,0,3.548,2.189c.441.221.7.184.956-.11s1.1-1.288,1.4-1.729.588-.368.993-.221,2.573,1.214,3.015,1.435.735.331.845.515A3.679,3.679,0,0,1,157.384,145.445Zm0,0" transform="translate(-118.621 -110.126)"/></svg>